PathFileType	4	(X/Y/Z)	Kaydara																																																																																																																																																																																																																												
DataRate	CameraRate	NumFrames	NumMarkers	Units	OrigDataRate	OrigDataStartFrame	OrigNumFrames																																																																																																																																																																																																																								
60	60	4	74	mm	60	1001	201																																																																																																																																																																																																																								
Frame#	Time	N_lasi			N_rasi			N_rpsi			N_lpsi			N_fneck			N_bneck			N_fhead			N_rhead			N_lhead			N_rshld			N_relbtop			N_relbext			N_relblow			N_rwrext			N_rwrtop			N_rwrlow			N_lshld			N_lelblow			N_lelbtop			N_lwrext			N_lwrtop			N_lwrlow			N_rtopleg			N_ltopleg			N_rkneefr			N_rkneebk			N_rkneeis			N_lkneefr			N_lknssbk			N_lkneeis			N_rankfr			N_rankis			N_rankbk			N_lankfr			N_lankbk			N_lankis			D_lasi			D_rasi			D_lpsi			D_fneck			D_bneck			D_fhead			D_rhead			D_lhead			D_rshld			D_relbtop			D_relbext			D_relblow			D_rwrext			D_rwrtop			D_rwrlow			D_lshld			D_lelbext			D_lelblow			D_lelbtop			D_lwrext			D_lwrtop			D_lwrlow			D_rtopleg			D_ltopleg			D_rkneefr			D_rkneebk			D_rkneeis			D_lkneefr			D_lknssbk			D_lkneeis			D_rankfr			D_rankis			D_rankbk			D_lankfr			D_lankbk			D_lankis			D_rpsi			N_lelbext		
		X1	Y1	Z1	X2	Y2	Z2	X3	Y3	Z3	X4	Y4	Z4	X5	Y5	Z5	X6	Y6	Z6	X7	Y7	Z7	X8	Y8	Z8	X9	Y9	Z9	X10	Y10	Z10	X11	Y11	Z11	X12	Y12	Z12	X13	Y13	Z13	X14	Y14	Z14	X15	Y15	Z15	X16	Y16	Z16	X17	Y17	Z17	X18	Y18	Z18	X19	Y19	Z19	X20	Y20	Z20	X21	Y21	Z21	X22	Y22	Z22	X23	Y23	Z23	X24	Y24	Z24	X25	Y25	Z25	X26	Y26	Z26	X27	Y27	Z27	X28	Y28	Z28	X29	Y29	Z29	X30	Y30	Z30	X31	Y31	Z31	X32	Y32	Z32	X33	Y33	Z33	X34	Y34	Z34	X35	Y35	Z35	X36	Y36	Z36	X37	Y37	Z37	X38	Y38	Z38	X39	Y39	Z39	X40	Y40	Z40	X41	Y41	Z41	X42	Y42	Z42	X43	Y43	Z43	X44	Y44	Z44	X45	Y45	Z45	X46	Y46	Z46	X47	Y47	Z47	X48	Y48	Z48	X49	Y49	Z49	X50	Y50	Z50	X51	Y51	Z51	X52	Y52	Z52	X53	Y53	Z53	X54	Y54	Z54	X55	Y55	Z55	X56	Y56	Z56	X57	Y57	Z57	X58	Y58	Z58	X59	Y59	Z59	X60	Y60	Z60	X61	Y61	Z61	X62	Y62	Z62	X63	Y63	Z63	X64	Y64	Z64	X65	Y65	Z65	X66	Y66	Z66	X67	Y67	Z67	X68	Y68	Z68	X69	Y69	Z69	X70	Y70	Z70	X71	Y71	Z71	X72	Y72	Z72	X73	Y73	Z73	X74	Y74	Z74
																																																																																																																																																																																																																															
51	16.667	-522.51507	1229.05502	-60.84367	-507.19673	1251.50085	-291.33615	-230.84539	1220.19974	-339.46083	-246.15139	1212.01584	28.44008	-370.67913	1606.89682	-148.88823	-233.04419	1661.71661	-163.29716	-415.317	1818.37967	-157.23223	-233.59783	1759.04251	-224.61967	-272.67467	1775.19241	-72.91019	-299.75306	1544.18213	-415.92354	-247.70184	1224.8912	-458.16357	-347.41295	1164.49364	-413.43311	-338.40614	1227.33337	-446.32629	-283.26239	906.47026	-460.30205	-328.13091	897.65732	-475.65201	-359.18282	911.78421	-441.49288	-282.19929	1538.3313	88.19496	-355.59071	1205.60623	100.29406	-266.84591	1200.75119	102.47016	-311.56931	886.72852	81.08816	-351.77933	881.84525	106.32044	-383.76877	892.08321	64.82895	-410.3474	1049.93515	-427.83775	-362.67025	1009.2234	51.10592	-429.03114	563.0547	-251.82251	-323.24989	579.05201	-320.76317	-365.62496	564.75502	-159.24062	-377.35992	539.62433	-94.11691	-251.0137	554.45335	-35.59563	-253.87707	547.02137	-185.31897	-297.90243	139.75801	-267.63767	-298.65335	153.93529	-187.76625	-217.29156	141.18332	-214.40931	-331.79588	192.84267	-117.15509	-258.50897	184.66635	-74.75492	-294.50897	163.66635	-158.75492	-470.98946	1039.10439	1735.16632	-432.49012	1054.67148	1447.73712	-272.61435	1132.99171	1740.98984	-403.85246	1566.05682	1581.98685	-263.79538	1591.23779	1589.72015	-446.05782	1773.26416	1583.37814	-282.62339	1733.52478	1506.40335	-291.47427	1732.22549	1662.18384	-328.66966	1550.68283	1420.75165	-393.71803	1417.0639	1136.99097	-437.49485	1458.36304	1180.0531	-340.76729	1478.11005	1170.13588	-458.45787	1697.08527	1100.79002	-401.33369	1707.13989	1092.74193	-395.10647	1698.94623	1146.45546	-319.41748	1553.81256	1786.50955	-397.74406	1498.82553	2011.83807	-307.04983	1498.62366	2016.82236	-357.38457	1450.32898	2061.97311	-407.6046	1732.22809	2076.13312	-365.34012	1735.95978	2062.66754	-363.95065	1725.09384	2014.95132	-338.15941	1004.80247	1405.21133	-329.48006	1010.47234	1805.51392	-375.50159	455.44792	1449.21539	-276.18994	491.75983	1420.76141	-282.98548	459.59957	1541.95496	-362.32841	451.54549	1768.78143	-249.93431	487.21794	1784.3988	-321.83411	444.66942	1677.42691	-324.48147	130.44519	1417.6387	-295.14797	127.30844	1482.53632	-244.23197	128.38687	1417.52228	-324.4949	134.91667	1791.48041	-251.96476	125.45656	1805.41763	-295.04612	124.19344	1732.25754	-242.99171	1144.70383	1524.70398	-361.99341	1173.40073	36.56782
52	16.683	-522.25002	1229.14566	-60.74865	-506.86977	1251.50993	-291.31449	-230.59305	1220.18188	-339.61159	-246.57434	1212.00279	25.91836	-370.42675	1606.97098	-148.81016	-232.75232	1661.85516	-163.23923	-415.0494	1818.41339	-156.96999	-233.30154	1759.21463	-224.3993	-272.10356	1775.23346	-72.90637	-299.21785	1544.21616	-415.93174	-246.97906	1224.83665	-457.77611	-346.75415	1164.52911	-413.22617	-337.80117	1227.35619	-446.43139	-283.00364	906.48384	-460.37537	-327.88292	897.66914	-475.87238	-359.05617	911.82457	-441.8211	-282.00445	1538.32184	88.17153	-354.54411	1205.56755	100.26821	-265.42366	1200.68565	101.97731	-310.3627	886.78078	81.03417	-350.40722	881.92635	106.88291	-382.93003	891.98486	65.82155	-410.12428	1050.04623	-428.05244	-361.96014	1009.34341	51.40505	-428.92105	563.10986	-251.71091	-323.13576	579.06006	-320.73921	-365.39959	564.77741	-159.18162	-377.13474	539.63741	-94.01675	-250.81533	554.46232	-35.58771	-253.73556	546.9994	-185.34002	-297.90165	139.76208	-267.62697	-298.62535	153.98296	-187.72423	-217.25729	141.15981	-214.39985	-331.70021	192.8566	-117.02866	-258.37942	184.68094	-74.69564	-294.37942	163.68094	-158.69564	-470.37594	1039.13383	1735.03723	-432.24533	1054.66461	1447.61032	-271.79958	1133.00392	1740.383	-403.51372	1566.20346	1581.91559	-263.44124	1591.24466	1589.51889	-445.33634	1773.44193	1583.46802	-282.2081	1733.54843	1507.51526	-290.6115	1731.97693	1661.96274	-328.49873	1550.85739	1420.55206	-393.69431	1417.18414	1136.9558	-437.26528	1458.20343	1179.81041	-340.94543	1478.39691	1169.95056	-459.38644	1696.93558	1100.27451	-402.24785	1707.03262	1091.96198	-395.9129	1698.89328	1146.02051	-318.91287	1553.78296	1786.18042	-398.19145	1498.54813	2011.32782	-307.31306	1498.38608	2016.5361	-357.72453	1450.04623	2061.64474	-408.90404	1731.73904	2075.74203	-366.19751	1735.56625	2062.54044	-364.72359	1724.74609	2014.59457	-337.8508	1004.81232	1404.78668	-329.14715	1010.29633	1805.16754	-375.43732	455.41553	1449.15756	-276.09974	491.71616	1420.63293	-282.85133	459.59003	1541.82953	-362.23701	451.57581	1768.75961	-249.70999	487.24113	1784.14307	-321.85429	444.65778	1677.31277	-324.48048	130.43083	1417.63443	-295.13124	127.23658	1482.44537	-244.21661	128.3009	1417.50183	-324.46564	134.9209	1791.4624	-251.9412	125.45732	1805.41748	-295.06155	124.1743	1732.26486	-242.70744	1144.73785	1524.41528	-360.77972	1173.50578	36.27166
53	16.7	-521.98044	1229.30038	-60.74757	-506.52378	1251.61133	-291.33411	-230.52193	1220.25169	-339.49642	-247.00169	1211.85097	23.66028	-370.10593	1607.09213	-148.90398	-232.07243	1661.38306	-163.25689	-414.73938	1818.44604	-156.75424	-232.95534	1759.41513	-224.34195	-271.84019	1775.25314	-72.72528	-298.71628	1544.24561	-415.95451	-246.37529	1224.73763	-457.8249	-346.12686	1164.55139	-413.33424	-337.14024	1227.39693	-446.73035	-282.76548	906.49857	-460.57774	-327.65209	897.69569	-476.16661	-358.8361	911.85585	-442.25388	-281.77382	1538.29773	88.17453	-353.40614	1205.54169	100.55276	-264.33403	1200.6649	101.6678	-309.36169	886.75117	81.07495	-349.02203	881.98013	107.54313	-381.91444	891.828	66.81689	-409.80789	1050.20699	-428.2819	-361.44184	1009.42909	51.85052	-428.83331	563.17215	-251.6292	-323.03871	579.08024	-320.70866	-365.3056	564.84093	-159.07192	-376.91929	539.66599	-93.89394	-250.41397	554.56299	-35.66479	-253.62043	547.00371	-185.34426	-297.85929	139.77589	-267.64996	-298.55841	153.96717	-187.70355	-217.24146	141.16127	-214.37582	-331.56666	192.87771	-116.90269	-258.11054	184.68138	-74.72487	-294.11054	163.68138	-158.72487	-469.68456	1039.16862	1734.86694	-431.95328	1054.62219	1447.35168	-271.11065	1132.92542	1740.13382	-403.29937	1566.1972	1581.88675	-263.13301	1591.21384	1589.23279	-444.73579	1773.71979	1583.64883	-281.79356	1733.50204	1507.19894	-289.9563	1731.95175	1661.73584	-328.31787	1551.03607	1420.35645	-393.54153	1417.16583	1136.86676	-437.1743	1458.05023	1179.83734	-340.79945	1478.63403	1169.60358	-460.19264	1696.71036	1100.17807	-403.25802	1706.9133	1091.99615	-396.9376	1698.94714	1145.6955	-318.77117	1553.60748	1786.15646	-398.42491	1498.11157	2010.9462	-307.51165	1498.10608	2016.26205	-358.09456	1449.76196	2061.14487	-409.49093	1731.1467	2075.46005	-367.28577	1734.98978	2061.86295	-365.4644	1724.28009	2014.48486	-337.58305	1004.79942	1404.45969	-328.44429	1010.52803	1805.01175	-375.42801	455.58895	1449.18732	-276.04891	491.63696	1420.49011	-282.7203	459.49448	1541.61957	-362.18819	451.62292	1768.71292	-249.59139	487.1579	1783.92029	-321.85345	444.60457	1677.2464	-324.42822	130.38828	1417.65915	-295.10881	127.17779	1482.42676	-244.1732	128.24207	1417.43317	-324.40201	134.94348	1791.52145	-251.86975	125.42923	1805.38498	-295.05177	124.1328	1732.25998	-242.25771	1144.77806	1523.80066	-359.68666	1173.6396	36.22239
54	16.717	-521.69487	1229.46251	-60.80064	-506.1203	1251.71707	-291.38721	-230.30689	1220.31799	-339.46449	-247.12313	1211.77818	22.35832	-369.66576	1607.22015	-149.03134	-231.8248	1661.52405	-163.24276	-414.41895	1818.47565	-156.62169	-232.6156	1759.65332	-224.23716	-271.5064	1775.29144	-72.67513	-298.10608	1544.19388	-416.03172	-245.77408	1224.62868	-457.55215	-345.57117	1164.54971	-413.23891	-336.61995	1227.3999	-446.94397	-282.54623	906.4447	-460.86517	-327.36084	897.7095	-476.64589	-358.59257	911.86157	-442.78656	-281.45437	1538.29681	88.18438	-352.67052	1205.5043	101.2366	-263.46233	1200.76759	101.19463	-308.15878	886.72356	81.22598	-347.31026	881.9973	108.10684	-381.04843	891.73866	68.13657	-409.37077	1050.38254	-428.48465	-360.86205	1009.45213	52.3397	-428.72845	563.22784	-251.52515	-322.94495	579.09607	-320.67383	-365.15152	564.90303	-159.00259	-376.70094	539.74537	-93.77549	-250.18135	554.55101	-35.64179	-253.50201	546.98597	-185.33581	-297.79215	139.79219	-267.67813	-298.44097	153.95578	-187.70813	-217.20648	141.14125	-214.36916	-331.44226	192.86129	-116.82803	-258.04022	184.67133	-74.65412	-294.04022	163.67133	-158.65412	-469.02046	1039.29405	1734.65454	-431.6523	1054.57932	1447.08771	-270.50068	1132.8933	1739.96124	-403.15395	1566.22253	1581.85822	-262.87781	1591.17462	1589.00894	-444.1468	1773.92899	1583.80585	-281.46618	1733.44986	1506.76758	-289.44086	1731.84845	1661.66611	-328.15071	1551.22406	1420.18372	-393.39451	1417.13409	1136.75674	-437.03312	1457.8714	1179.8822	-340.99552	1478.75305	1169.65675	-461.01055	1696.40747	1100.05325	-403.95061	1706.88904	1091.60316	-397.29534	1698.91296	1145.58022	-318.54965	1553.50098	1786.01593	-398.48465	1497.67319	2010.77682	-307.80054	1497.83447	2016.41388	-358.20023	1449.42627	2060.74142	-410.05966	1730.51971	2075.4245	-367.99263	1734.48273	2062.23434	-366.45115	1724.01505	2014.47327	-337.37507	1004.7731	1404.21677	-327.59621	1010.61668	1804.68628	-375.34592	455.66448	1449.12003	-275.97534	491.5266	1420.4068	-282.4732	459.45518	1541.50848	-362.02263	451.66718	1768.66882	-249.37853	487.14302	1783.75336	-321.74381	444.57405	1677.15103	-324.42139	130.33865	1417.64191	-295.03607	127.1282	1482.39227	-244.13906	128.18553	1417.3764	-324.3335	134.93774	1791.51291	-251.84635	125.38296	1805.26871	-295.06474	124.11805	1732.26898	-241.85228	1144.79813	1523.25851	-358.90377	1173.8295	36.29092
